<?xml version="1.0" encoding="UTF-8"?>
<svg version="1.1" xmlns="http://www.w3.org/2000/svg" width="2000" height="2000">
<path d="M0 0 C660 0 1320 0 2000 0 C2000 660 2000 1320 2000 2000 C1340 2000 680 2000 0 2000 C0 1340 0 680 0 0 Z " fill="#FEFEFE" transform="translate(0,0)"/>
<path d="M0 0 C517.77 0 1035.54 0 1569 0 C1569 47.85 1569 95.7 1569 145 C1334.04 145 1099.08 145 857 145 C857 184.27 857 223.54 857 264 C1184.03 264 1511.06 264 1848 264 C1848 311.85 1848 359.7 1848 409 C1613.04 409 1378.08 409 1136 409 C1136 597.76 1136 786.52 1136 981 C1281.2 981 1426.4 981 1576 981 C1576 1032.15 1576 1083.3 1576 1136 C1197.82 1136 819.64 1136 430 1136 C434.75419787 1162.14808828 441.16756359 1185.13233987 459 1205 C459.5878125 1205.74121094 460.175625 1206.48242188 460.78125 1207.24609375 C478.09705164 1228.54908656 507.23727513 1240.6807975 533.90076996 1243.81354476 C541.96107558 1244.52946735 550.11550069 1244.27653419 558.1989336 1244.26171303 C560.46354593 1244.26490332 562.72815716 1244.26896728 564.99276653 1244.27382231 C571.21995237 1244.28464165 577.44708279 1244.28306137 583.67427472 1244.27947159 C589.74827281 1244.27794106 595.82225246 1244.28583986 601.89624474 1244.29345289 C614.46677721 1244.30887603 627.03729839 1244.31489961 639.60783958 1244.31578636 C652.34320002 1244.31672335 665.07854763 1244.3220172 677.81390381 1244.33261681 C678.61878877 1244.33328413 679.42367374 1244.33395146 680.25294916 1244.334639 C684.35718333 1244.33806185 688.46141743 1244.34155548 692.56565152 1244.3450741 C722.25973621 1244.37038661 751.95381972 1244.38607666 781.64791298 1244.39665604 C811.05243628 1244.40716049 840.45695284 1244.42178787 869.86147118 1244.44193649 C870.77483611 1244.44256048 871.68820105 1244.44318446 872.62924371 1244.44382735 C880.97148866 1244.44952871 889.31373358 1244.45528084 897.65597846 1244.46109388 C918.39338696 1244.4755435 939.13079585 1244.4893564 959.86820507 1244.50273705 C961.28467139 1244.50365178 961.28467139 1244.50365178 962.72975319 1244.50458498 C1008.65926981 1244.5341899 1054.58878961 1244.55645868 1100.51831055 1244.578125 C1116.45585127 1244.58564729 1132.39339197 1244.59320203 1148.33093262 1244.60089111 C1149.81361481 1244.60160639 1149.81361481 1244.60160639 1151.32625018 1244.60233611 C1197.281535 1244.62455025 1243.23681628 1244.65197762 1289.19209741 1244.68074883 C1292.17574112 1244.6826167 1295.15938483 1244.68448233 1298.14302854 1244.6863475 C1317.91587804 1244.69871172 1337.68872747 1244.71116578 1357.46157687 1244.72367998 C1396.80426078 1244.74857911 1436.14694501 1244.77295043 1475.48962947 1244.79695912 C1477.36320857 1244.79810246 1479.23678766 1244.79924618 1481.11036676 1244.80039027 C1565.44898215 1244.8518879 1649.78760044 1244.89724563 1734.1262207 1244.93994141 C1734.91589433 1244.94034121 1735.70556796 1244.94074102 1736.51917109 1244.94115294 C1748.15909725 1244.94704474 1759.79902341 1244.95291087 1771.43894958 1244.95875549 C1772.12234721 1244.95909874 1772.80574484 1244.95944199 1773.50985148 1244.95979564 C1800.67323421 1244.97343552 1827.83661712 1244.98668339 1855 1245 C1855 1296.15 1855 1347.3 1855 1400 C1794.43481865 1400.02436392 1794.43481865 1400.02436392 1771.10899353 1400.0333252 C1770.38917514 1400.0336019 1769.66935674 1400.0338786 1768.92772567 1400.03416368 C1757.16706778 1400.03868297 1745.40640987 1400.0431604 1733.64575195 1400.04760742 C1732.85412876 1400.04790681 1732.06250556 1400.04820621 1731.24689379 1400.04851467 C1646.39516263 1400.08058721 1561.54343138 1400.10825369 1476.69169617 1400.12702942 C1474.80612237 1400.12744777 1472.92054856 1400.12786613 1471.03497476 1400.12828448 C1431.45307573 1400.13705324 1391.87117659 1400.14520331 1352.28927728 1400.15263903 C1332.40488835 1400.15637511 1312.52049944 1400.16023003 1292.63611055 1400.16419732 C1289.63669455 1400.16479507 1286.63727856 1400.16538943 1283.63786256 1400.16598364 C1237.47126044 1400.17515959 1191.3046607 1400.18687845 1145.13806152 1400.20599365 C1144.14603844 1400.20640435 1143.15401536 1400.20681505 1142.13193097 1400.20723819 C1126.13839226 1400.213875 1110.14485364 1400.22072594 1094.15131503 1400.22760532 C1048.0642445 1400.24742571 1001.9771758 1400.26565303 955.89010143 1400.27341938 C954.46736427 1400.27366029 954.46736427 1400.27366029 953.01588495 1400.27390606 C932.1901682 1400.27740401 911.36445142 1400.28008827 890.53873447 1400.28200295 C882.15814401 1400.28278777 873.77755356 1400.28368964 865.39696312 1400.28463173 C864.02116651 1400.28478215 864.02116651 1400.28478215 862.61757603 1400.28493561 C833.10471336 1400.28822055 803.5918643 1400.30101877 774.07900711 1400.31884663 C744.32975316 1400.33677348 714.58051239 1400.34528878 684.83125291 1400.34087196 C680.71244804 1400.34026279 676.59364315 1400.33976062 672.47483826 1400.33932304 C671.26382158 1400.33918858 671.26382158 1400.33918858 670.02833992 1400.3390514 C657.28710762 1400.33791313 644.54590336 1400.3468305 631.80467869 1400.36002959 C619.25030133 1400.3728256 606.69596002 1400.37477458 594.1415792 1400.36549544 C587.43623831 1400.36083072 580.73100162 1400.36109697 574.02566496 1400.37464955 C511.3567029 1400.49397975 511.3567029 1400.49397975 484.625 1394.25 C483.48111816 1393.99178467 482.33723633 1393.73356934 481.15869141 1393.4675293 C441.28742212 1384.22879452 405.1731075 1367.18478976 373 1342 C372.45553223 1341.57557617 371.91106445 1341.15115234 371.35009766 1340.71386719 C356.05537216 1328.65354472 341.67748063 1314.44065763 330.22558594 1298.66992188 C328.9539271 1296.93722338 327.64210203 1295.24157428 326.3203125 1293.546875 C293.55127701 1251.02044027 271.82819519 1190.06165095 275 1136 C274.2972998 1136.01047363 273.59459961 1136.02094727 272.87060547 1136.03173828 C202.02555136 1136.94163249 134.24068685 1115.4116388 81.4765625 1067.25390625 C79.79747795 1065.7257804 78.10419177 1064.21314142 76.3984375 1062.71484375 C71.15704978 1058.09893885 66.47180397 1053.35512327 62 1048 C61.16726562 1047.04351563 60.33453125 1046.08703125 59.4765625 1045.1015625 C11.92750926 990.34067739 -5.61051044 919.97798594 -5.36076355 848.81744385 C-5.36039862 845.98840949 -5.3645838 843.15938564 -5.36853105 840.33035445 C-5.37468033 834.2358587 -5.36994632 828.14145183 -5.35761642 822.04696655 C-5.33933468 812.98504136 -5.33862519 803.92317092 -5.34124239 794.86123065 C-5.34516307 779.60958048 -5.33524039 764.35796961 -5.31719017 749.10633087 C-5.29938655 734.02410944 -5.28788177 718.94190441 -5.28463173 703.85967255 C-5.28442551 702.91888145 -5.28421929 701.97809035 -5.28400682 701.00879042 C-5.2829917 696.23021074 -5.2820876 691.45163104 -5.2812262 686.67305133 C-5.27493938 652.90214029 -5.25476776 619.13125059 -5.22631836 585.36035156 C-5.19872704 552.56998813 -5.17749487 519.77963055 -5.16479492 486.98925781 C-5.16440034 485.97698253 -5.16400576 484.96470724 -5.16359923 483.92175694 C-5.15964338 473.75527439 -5.15581598 463.58879179 -5.15208265 453.42230916 C-5.14447577 432.71543805 -5.13601202 412.00856733 -5.12702942 391.30169678 C-5.12661755 390.34980843 -5.12620568 389.39792008 -5.12578133 388.41718663 C-5.11312217 359.26430758 -5.09683419 330.11143214 -5.07695007 300.95855713 C-5.07610606 299.71800661 -5.07610606 299.71800661 -5.075245 298.45239447 C-5.05240886 264.96826132 -5.0257205 231.48413102 -5 198 C46.48 198 97.96 198 151 198 C151.02187378 228.6132605 151.02187378 228.6132605 151.04418945 259.8449707 C151.05436563 273.47398402 151.06459213 287.10299717 151.07551575 300.73200989 C151.07620828 301.59788812 151.07690081 302.46376636 151.07761432 303.35588333 C151.1009869 332.51217716 151.12845122 361.66846563 151.15898132 390.82475281 C151.15997689 391.77652204 151.16097246 392.72829127 151.16199819 393.70890199 C151.18365832 414.39498731 151.20598113 435.08107186 151.22898628 455.76715573 C151.24026449 465.91207178 151.2513963 476.056988 151.26245117 486.2019043 C151.26355374 487.21142838 151.2646563 488.22095246 151.26579228 489.26106818 C151.30144064 521.96398354 151.3274285 554.66689788 151.34838969 587.36982568 C151.36998688 620.98521681 151.401364 654.60058505 151.44499113 688.21595515 C151.45115309 692.96734123 151.45720361 697.71872745 151.46318626 702.47011375 C151.46495759 703.87278151 151.46495759 703.87278151 151.46676469 705.30378599 C151.48546311 720.33729529 151.49389685 735.37079354 151.49846124 750.40431304 C151.50327371 765.52970436 151.51897347 780.65505369 151.54566566 795.78042249 C151.56118307 804.75912738 151.56847361 813.73774941 151.56376929 822.71646696 C151.56144593 828.72568918 151.57007036 834.73483349 151.58732411 840.74403117 C151.59682882 844.16071726 151.60015746 847.57708948 151.59339563 850.99380306 C151.53552857 883.56378724 156.47444682 913.30933978 178 939 C178.84433594 940.00804687 179.68867188 941.01609375 180.55859375 942.0546875 C198.71984789 963.06947203 224.51069756 975.94563306 252 979 C259.26 979.33 266.52 979.66 274 980 C274 809.06 274 638.12 274 462 C325.48 462 376.96 462 430 462 C430 633.27 430 804.54 430 981 C615.13 981 800.26 981 991 981 C991 792.24 991 603.48 991 409 C946.78 409 902.56 409 857 409 C857 561.79 857 714.58 857 872 C809.15 872 761.3 872 712 872 C712 719.21 712 566.42 712 409 C569.11 409 426.22 409 279 409 C279 361.15 279 313.3 279 264 C421.89 264 564.78 264 712 264 C712 224.73 712 185.46 712 145 C477.04 145 242.08 145 0 145 C0 97.15 0 49.3 0 0 Z " fill="#202021" transform="translate(82,221)"/>
<path d="M0 0 C142.89 0 285.78 0 433 0 C434.16196003 167.32224467 434.16196003 167.32224467 434.10573006 245.15603638 C434.09711832 258.85747063 434.09496532 272.55890203 434.09374207 286.26033866 C434.09160452 308.54205067 434.08509655 330.82375882 434.07543945 353.10546875 C434.06612239 374.62630211 434.05910197 396.14713387 434.05493164 417.66796875 C434.05480011 418.34227092 434.05466859 419.0165731 434.05453308 419.71130867 C434.05321351 426.48862099 434.05193785 433.26593331 434.05069422 440.04324563 C434.04041683 496.02883311 434.02292975 552.01441635 434 608 C433.67 608 433.34 608 433 608 C433 455.21 433 302.42 433 145 C290.11 145 147.22 145 0 145 C0 97.15 0 49.3 0 0 Z " fill="#262626" transform="translate(361,485)"/>
</svg>
