<?xml version="1.0" encoding="UTF-8"?>
<svg version="1.1" xmlns="http://www.w3.org/2000/svg" width="2000" height="2000">
<path d="M0 0 C660 0 1320 0 2000 0 C2000 660 2000 1320 2000 2000 C1340 2000 680 2000 0 2000 C0 1340 0 680 0 0 Z " fill="#1C1C1E" transform="translate(0,0)"/>
<path d="M0 0 C517.77 0 1035.54 0 1569 0 C1569 47.85 1569 95.7 1569 145 C1334.04 145 1099.08 145 857 145 C857 184.27 857 223.54 857 264 C1184.03 264 1511.06 264 1848 264 C1848 311.85 1848 359.7 1848 409 C1613.04 409 1378.08 409 1136 409 C1136 597.76 1136 786.52 1136 981 C1281.2 981 1426.4 981 1576 981 C1576 1032.15 1576 1083.3 1576 1136 C1197.82 1136 819.64 1136 430 1136 C434.75419787 1162.14808828 441.16756359 1185.13233987 459 1205 C459.5878125 1205.74121094 460.175625 1206.48242188 460.78125 1207.24609375 C473.88288753 1223.36455571 495.02471879 1235.02115723 515 1240 C515.95501786 1240.24659117 516.91003571 1240.49318233 517.8939935 1240.74724596 C529.44865829 1243.40675777 540.72583764 1243.42172873 552.53873348 1243.38476086 C554.81591057 1243.38869292 557.0930857 1243.39393703 559.37025711 1243.40036663 C565.62302768 1243.4142309 571.87566635 1243.40951027 578.12844235 1243.40173779 C584.23013098 1243.39711973 590.3317837 1243.40668245 596.43346449 1243.41580265 C609.05915047 1243.43417547 621.68480571 1243.43845005 634.31050301 1243.43499184 C647.09985474 1243.43154685 659.88918014 1243.43465461 672.67852783 1243.44572449 C673.48712983 1243.4464205 674.29573182 1243.44711652 675.12883691 1243.44783363 C679.25209852 1243.4514129 683.37536003 1243.45509847 687.49862151 1243.45882157 C717.3225963 1243.48553388 747.14656297 1243.49780188 776.97054863 1243.50238609 C806.50181115 1243.50696775 836.03306084 1243.51774582 865.5643177 1243.53681374 C866.48177066 1243.53740331 867.39922361 1243.53799288 868.34447817 1243.53860032 C876.72411611 1243.54398851 885.103754 1243.54945295 893.48339183 1243.55500887 C914.31333718 1243.56881874 935.14328306 1243.58167242 955.97322941 1243.59387684 C956.92173238 1243.59443334 957.87023535 1243.59498984 958.84748084 1243.59556321 C1004.9758732 1243.62254402 1051.10426849 1243.63850738 1097.23266602 1243.65356445 C1113.23832197 1243.6587951 1129.24397791 1243.66407448 1145.24963379 1243.66955566 C1146.73866186 1243.67006551 1146.73866186 1243.67006551 1148.2577713 1243.67058566 C1194.41361499 1243.68645642 1240.5694537 1243.71015874 1286.72529283 1243.73587859 C1289.72212281 1243.73754839 1292.7189528 1243.73921483 1295.71578279 1243.74088058 C1315.57609346 1243.75192505 1335.43640405 1243.76310446 1355.29671459 1243.7743742 C1394.81309683 1243.7967966 1434.3294795 1243.81842629 1473.84586247 1243.83951129 C1475.72769441 1243.84051539 1477.60952635 1243.84152006 1479.49135828 1243.84252527 C1564.19662845 1243.88776765 1648.90190162 1243.92378876 1733.60717773 1243.95581055 C1734.40024955 1243.95611042 1735.19332136 1243.95641029 1736.01042566 1243.95671924 C1747.70041661 1243.96113727 1759.39040758 1243.96551673 1771.08039856 1243.96986389 C1771.76673436 1243.97011927 1772.45307015 1243.97037466 1773.160204 1243.97063778 C1800.44013588 1243.98078333 1827.72006795 1243.99034004 1855 1244 C1855 1295.48 1855 1346.96 1855 1400 C1794.43481865 1400.02436392 1794.43481865 1400.02436392 1771.10899353 1400.0333252 C1770.38917514 1400.0336019 1769.66935674 1400.0338786 1768.92772567 1400.03416368 C1757.16706778 1400.03868297 1745.40640987 1400.0431604 1733.64575195 1400.04760742 C1732.85412876 1400.04790681 1732.06250556 1400.04820621 1731.24689379 1400.04851467 C1646.39516263 1400.08058721 1561.54343138 1400.10825369 1476.69169617 1400.12702942 C1474.80612237 1400.12744777 1472.92054856 1400.12786613 1471.03497476 1400.12828448 C1431.45307573 1400.13705324 1391.87117659 1400.14520331 1352.28927728 1400.15263903 C1332.40488835 1400.15637511 1312.52049944 1400.16023003 1292.63611055 1400.16419732 C1289.63669455 1400.16479507 1286.63727856 1400.16538943 1283.63786256 1400.16598364 C1237.47126044 1400.17515959 1191.3046607 1400.18687845 1145.13806152 1400.20599365 C1144.14603844 1400.20640435 1143.15401536 1400.20681505 1142.13193097 1400.20723819 C1126.13839226 1400.213875 1110.14485364 1400.22072594 1094.15131503 1400.22760532 C1048.0642445 1400.24742571 1001.9771758 1400.26565303 955.89010143 1400.27341938 C954.46736427 1400.27366029 954.46736427 1400.27366029 953.01588495 1400.27390606 C932.1901682 1400.27740401 911.36445142 1400.28008827 890.53873447 1400.28200295 C882.15814401 1400.28278777 873.77755356 1400.28368964 865.39696312 1400.28463173 C864.02116651 1400.28478215 864.02116651 1400.28478215 862.61757603 1400.28493561 C833.10471336 1400.28822055 803.5918643 1400.30101877 774.07900711 1400.31884663 C744.32975316 1400.33677348 714.58051239 1400.34528878 684.83125291 1400.34087196 C680.71244804 1400.34026279 676.59364315 1400.33976062 672.47483826 1400.33932304 C671.26382158 1400.33918858 671.26382158 1400.33918858 670.02833992 1400.3390514 C657.28710762 1400.33791313 644.54590336 1400.3468305 631.80467869 1400.36002959 C619.25030133 1400.3728256 606.69596002 1400.37477458 594.1415792 1400.36549544 C587.43623831 1400.36083072 580.73100162 1400.36109697 574.02566496 1400.37464955 C511.36156141 1400.49397049 511.36156141 1400.49397049 484.625 1394.25 C483.48256836 1393.99250977 482.34013672 1393.73501953 481.16308594 1393.46972656 C441.27812376 1384.23822517 405.20276293 1367.20800373 373 1342 C372.45553223 1341.57557617 371.91106445 1341.15115234 371.35009766 1340.71386719 C356.05537216 1328.65354472 341.67748063 1314.44065763 330.22558594 1298.66992188 C328.9539271 1296.93722338 327.64210203 1295.24157428 326.3203125 1293.546875 C292.60245006 1249.78908797 274.25844616 1190.95737939 275 1136 C274.2972998 1136.01047363 273.59459961 1136.02094727 272.87060547 1136.03173828 C201.97268891 1136.94231143 134.20261907 1115.37840108 81.41015625 1067.1875 C79.07418746 1065.06733383 76.69673125 1063.0030269 74.3125 1060.9375 C70.84808385 1057.86138969 67.77179038 1054.63488812 64.7890625 1051.09375 C63.56958785 1049.6665919 62.31207148 1048.27128521 61.0234375 1046.90625 C27.6529435 1011.47285274 7.07758654 961.95874185 -0.625 914.375 C-0.82867187 913.18777344 -1.03234375 912.00054688 -1.2421875 910.77734375 C-4.60438369 890.41019375 -5.28835484 870.27579253 -5.24050903 849.65922546 C-5.24026634 846.83623501 -5.24305291 844.01324927 -5.24568737 841.19026023 C-5.24980227 835.08729381 -5.24660364 828.98436669 -5.23841095 822.88140488 C-5.22626318 813.80675163 -5.2257465 804.73212279 -5.22749493 795.65746289 C-5.23011349 780.38711486 -5.22347517 765.11678424 -5.21146011 749.84644127 C-5.19960376 734.73889772 -5.19192373 719.63136142 -5.18975449 704.52381325 C-5.18961701 703.58254097 -5.18947953 702.64126869 -5.18933788 701.67147301 C-5.18866116 696.89073061 -5.18805842 692.1099882 -5.18748413 687.32924578 C-5.18328944 653.51563484 -5.1698319 619.70203335 -5.15087891 585.88842773 C-5.13249395 553.0502121 -5.11833461 520.21199905 -5.10986328 487.3737793 C-5.10960023 486.36058333 -5.10933718 485.34738736 -5.10906615 484.30348848 C-5.10642899 474.12804856 -5.10387738 463.95260863 -5.10138843 453.77716868 C-5.09631676 433.0508119 -5.09067425 412.32445529 -5.08468628 391.59809875 C-5.0844117 390.64524938 -5.08413712 389.6924 -5.08385422 388.7106764 C-5.07541234 359.5198189 -5.0645523 330.32896301 -5.05130005 301.1381073 C-5.05092493 300.30976072 -5.05054982 299.48141413 -5.05016333 298.62796614 C-5.03493686 265.08531002 -5.01714624 231.54265517 -5 198 C46.48 198 97.96 198 151 198 C151.02187378 228.6132605 151.02187378 228.6132605 151.04418945 259.8449707 C151.05436563 273.47398402 151.06459213 287.10299717 151.07551575 300.73200989 C151.07620828 301.59788812 151.07690081 302.46376636 151.07761432 303.35588333 C151.1009869 332.51217716 151.12845122 361.66846563 151.15898132 390.82475281 C151.15997689 391.77652204 151.16097246 392.72829127 151.16199819 393.70890199 C151.18365832 414.39498731 151.20598113 435.08107186 151.22898628 455.76715573 C151.24026449 465.91207178 151.2513963 476.056988 151.26245117 486.2019043 C151.26355374 487.21142838 151.2646563 488.22095246 151.26579228 489.26106818 C151.30144064 521.96398354 151.3274285 554.66689788 151.34838969 587.36982568 C151.36998688 620.98521681 151.401364 654.60058505 151.44499113 688.21595515 C151.45115309 692.96734123 151.45720361 697.71872745 151.46318626 702.47011375 C151.46495759 703.87278151 151.46495759 703.87278151 151.46676469 705.30378599 C151.48546311 720.33729529 151.49389685 735.37079354 151.49846124 750.40431304 C151.50327371 765.52970436 151.51897347 780.65505369 151.54566566 795.78042249 C151.56118307 804.75912738 151.56847361 813.73774941 151.56376929 822.71646696 C151.56144593 828.72568918 151.57007036 834.73483349 151.58732411 840.74403117 C151.59682882 844.16071726 151.60015746 847.57708948 151.59339563 850.99380306 C151.52586828 889.00099806 159.42730754 920.11843268 186.26171875 948.25390625 C210.41777592 972.47888227 240.743965 978.48836205 274 980 C274 809.06 274 638.12 274 462 C325.48 462 376.96 462 430 462 C430 633.27 430 804.54 430 981 C615.13 981 800.26 981 991 981 C991 792.24 991 603.48 991 409 C946.78 409 902.56 409 857 409 C857 561.79 857 714.58 857 872 C809.15 872 761.3 872 712 872 C712 718.88 712 565.76 712 408 C569.11 408 426.22 408 279 408 C279 360.48 279 312.96 279 264 C421.89 264 564.78 264 712 264 C712 224.73 712 185.46 712 145 C477.04 145 242.08 145 0 145 C0 97.15 0 49.3 0 0 Z " fill="#FEFEFE" transform="translate(82,221)"/>
<path d="M0 0 C51.15 0 102.3 0 155 0 C156.98 10.89 156.98 10.89 159 22 C164.69350041 39.52705029 171.61502779 55.20152553 184 69 C184.5878125 69.74121094 185.175625 70.48242188 185.78125 71.24609375 C198.88288753 87.36455571 220.02471879 99.02115723 240 104 C240.95501786 104.24659117 241.91003571 104.49318233 242.8939935 104.74724596 C254.44865829 107.40675777 265.72583764 107.42172873 277.53873348 107.38476086 C279.81591057 107.38869292 282.0930857 107.39393703 284.37025711 107.40036663 C290.62302768 107.4142309 296.87566635 107.40951027 303.12844235 107.40173779 C309.23013098 107.39711973 315.3317837 107.40668245 321.43346449 107.41580265 C334.05915047 107.43417547 346.68480571 107.43845005 359.31050301 107.43499184 C372.09985474 107.43154685 384.88918014 107.43465461 397.67852783 107.44572449 C398.48712983 107.4464205 399.29573182 107.44711652 400.12883691 107.44783363 C404.25209852 107.4514129 408.37536003 107.45509847 412.49862151 107.45882157 C442.3225963 107.48553388 472.14656297 107.49780188 501.97054863 107.50238609 C531.50181115 107.50696775 561.03306084 107.51774582 590.5643177 107.53681374 C591.94049713 107.53769809 591.94049713 107.53769809 593.34447817 107.53860032 C601.72411611 107.54398851 610.103754 107.54945295 618.48339183 107.55500887 C639.31333718 107.56881874 660.14328306 107.58167242 680.97322941 107.59387684 C681.92173238 107.59443334 682.87023535 107.59498984 683.84748084 107.59556321 C729.9758732 107.62254402 776.10426849 107.63850738 822.23266602 107.65356445 C838.23832197 107.6587951 854.24397791 107.66407448 870.24963379 107.66955566 C871.73866186 107.67006551 871.73866186 107.67006551 873.2577713 107.67058566 C919.41361499 107.68645642 965.5694537 107.71015874 1011.72529283 107.73587859 C1014.72212281 107.73754839 1017.7189528 107.73921483 1020.71578279 107.74088058 C1040.57609346 107.75192505 1060.43640405 107.76310446 1080.29671459 107.7743742 C1119.81309683 107.7967966 1159.3294795 107.81842629 1198.84586247 107.83951129 C1200.72769441 107.84051539 1202.60952635 107.84152006 1204.49135828 107.84252527 C1289.19662845 107.88776765 1373.90190162 107.92378876 1458.60717773 107.95581055 C1459.40024955 107.95611042 1460.19332136 107.95641029 1461.01042566 107.95671924 C1472.70041661 107.96113727 1484.39040758 107.96551673 1496.08039856 107.96986389 C1496.76673436 107.97011927 1497.45307015 107.97037466 1498.160204 107.97063778 C1525.44013588 107.98078333 1552.72006795 107.99034004 1580 108 C1580 159.48 1580 210.96 1580 264 C1519.43481865 264.02436392 1519.43481865 264.02436392 1496.10899353 264.0333252 C1495.38917514 264.0336019 1494.66935674 264.0338786 1493.92772567 264.03416368 C1482.16706778 264.03868297 1470.40640987 264.0431604 1458.64575195 264.04760742 C1457.85412876 264.04790681 1457.06250556 264.04820621 1456.24689379 264.04851467 C1371.39516263 264.08058721 1286.54343138 264.10825369 1201.69169617 264.12702942 C1199.80612237 264.12744777 1197.92054856 264.12786613 1196.03497476 264.12828448 C1156.45307573 264.13705324 1116.87117659 264.14520331 1077.28927728 264.15263903 C1057.40488835 264.15637511 1037.52049944 264.16023003 1017.63611055 264.16419732 C1014.63669455 264.16479507 1011.63727856 264.16538943 1008.63786256 264.16598364 C962.47126044 264.17515959 916.3046607 264.18687845 870.13806152 264.20599365 C868.6500269 264.2066097 868.6500269 264.2066097 867.13193097 264.20723819 C851.13839226 264.213875 835.14485364 264.22072594 819.15131503 264.22760532 C773.0642445 264.24742571 726.9771758 264.26565303 680.89010143 264.27341938 C679.46736427 264.27366029 679.46736427 264.27366029 678.01588495 264.27390606 C657.1901682 264.27740401 636.36445142 264.28008827 615.53873447 264.28200295 C607.15814401 264.28278777 598.77755356 264.28368964 590.39696312 264.28463173 C589.02116651 264.28478215 589.02116651 264.28478215 587.61757603 264.28493561 C558.10471336 264.28822055 528.5918643 264.30101877 499.07900711 264.31884663 C469.32975316 264.33677348 439.58051239 264.34528878 409.83125291 264.34087196 C405.71244804 264.34026279 401.59364315 264.33976062 397.47483826 264.33932304 C396.26382158 264.33918858 396.26382158 264.33918858 395.02833992 264.3390514 C382.28710762 264.33791313 369.54590336 264.3468305 356.80467869 264.36002959 C344.25030133 264.3728256 331.69596002 264.37477458 319.1415792 264.36549544 C312.43623831 264.36083072 305.73100162 264.36109697 299.02566496 264.37464955 C236.36156141 264.49397049 236.36156141 264.49397049 209.625 258.25 C208.48256836 257.99250977 207.34013672 257.73501953 206.16308594 257.46972656 C166.27812376 248.23822517 130.20276293 231.20800373 98 206 C97.45553223 205.57557617 96.91106445 205.15115234 96.35009766 204.71386719 C81.05537216 192.65354472 66.67748063 178.44065763 55.22558594 162.66992188 C53.9539271 160.93722338 52.64210203 159.24157428 51.3203125 157.546875 C17.30527168 113.40342093 0 55.24423351 0 0 Z " fill="#DBDBDB" transform="translate(357,1357)"/>
<path d="M0 0 C0.33 0 0.66 0 1 0 C1 39.27 1 78.54 1 119 C328.03 119 655.06 119 992 119 C992 166.85 992 214.7 992 264 C757.04 264 522.08 264 280 264 C280 452.76 280 641.52 280 836 C232.15 836 184.3 836 135 836 C135 647.24 135 458.48 135 264 C90.78 264 46.56 264 1 264 C1 416.79 1 569.58 1 727 C0.67 727 0.34 727 0 727 C0 487.09 0 247.18 0 0 Z " fill="#DBDBDB" transform="translate(938,366)"/>
<path d="M0 0 C51.48 0 102.96 0 156 0 C156 171.27 156 342.54 156 519 C98.25 519 40.5 519 -19 519 C-19 518.67 -19 518.34 -19 518 C-12.73 518 -6.46 518 0 518 C0 347.06 0 176.12 0 0 Z " fill="#DBDBDB" transform="translate(356,683)"/>
<path d="M0 0 C0.33 0 0.66 0 1 0 C1 239.91 1 479.82 1 727 C0.67 727 0.34 727 0 727 C0 573.88 0 420.76 0 263 C-142.89 263 -285.78 263 -433 263 C-433 215.48 -433 167.96 -433 119 C-290.11 119 -147.22 119 0 119 C0 79.73 0 40.46 0 0 Z " fill="#DBDBDB" transform="translate(794,366)"/>
</svg>
